<svg width="16" height="16" viewBox="0 0 16 16" fill="none" xmlns="http://www.w3.org/2000/svg">
<path fill-rule="evenodd" clip-rule="evenodd" d="M8 1.5C5.63731 1.5 4 3.19074 4 5.25012C4 6.23377 4.42403 6.87528 4.98447 7.55371C5.05112 7.63439 5.12301 7.71927 5.1976 7.80732C5.42078 8.07081 5.66802 8.3627 5.87055 8.65525C6.15526 9.06649 6.40778 9.55128 6.49246 10.1441C6.55104 10.5541 6.26612 10.934 5.85607 10.9926C5.44602 11.0512 5.06612 10.7662 5.00754 10.3562C4.96722 10.074 4.84474 9.80875 4.63726 9.50906C4.47951 9.2812 4.30278 9.07249 4.0961 8.82841C4.01195 8.72904 3.92284 8.62381 3.82803 8.50903C3.20097 7.74996 2.5 6.76647 2.5 5.25012C2.5 2.30951 4.86269 0 8 0C11.1373 0 13.5 2.30951 13.5 5.25012C13.5 6.76647 12.799 7.74996 12.172 8.50903C12.0772 8.62381 11.988 8.72904 11.9039 8.82841C11.6972 9.07249 11.5205 9.2812 11.3627 9.50906C11.1553 9.80875 11.0328 10.074 10.9925 10.3562C10.9339 10.7662 10.554 11.0512 10.1439 10.9926C9.73388 10.934 9.44896 10.5541 9.50754 10.1441C9.59222 9.55128 9.84474 9.06649 10.1294 8.65525C10.332 8.3627 10.5792 8.07081 10.8024 7.80732C10.877 7.71927 10.9489 7.63439 11.0155 7.55371C11.576 6.87528 12 6.23377 12 5.25012C12 3.19074 10.3627 1.5 8 1.5Z" fill="black"/>
<path fill-rule="evenodd" clip-rule="evenodd" d="M6 15.25C6 14.8358 6.33579 14.5 6.75 14.5H9.25C9.66421 14.5 10 14.8358 10 15.25C10 15.6642 9.66421 16 9.25 16H6.75C6.33579 16 6 15.6642 6 15.25Z" fill="black"/>
<path fill-rule="evenodd" clip-rule="evenodd" d="M5 12.75C5 12.3358 5.33579 12 5.75 12H10.25C10.6642 12 11 12.3358 11 12.75C11 13.1642 10.6642 13.5 10.25 13.5H5.75C5.33579 13.5 5 13.1642 5 12.75Z" fill="black"/>
</svg>
