<svg width="24" height="24" viewBox="0 0 24 24" fill="none" xmlns="http://www.w3.org/2000/svg">
<path fill-rule="evenodd" clip-rule="evenodd" d="M2.75 2.5C2.61193 2.5 2.5 2.61193 2.5 2.75V9.25C2.5 9.38807 2.61193 9.5 2.75 9.5H9.25C9.38807 9.5 9.5 9.38807 9.5 9.25V2.75C9.5 2.61193 9.38807 2.5 9.25 2.5H2.75ZM1 2.75C1 1.7835 1.7835 1 2.75 1H9.25C10.2165 1 11 1.7835 11 2.75V9.25C11 10.2165 10.2165 11 9.25 11H6.5V15.25C6.5 16.4926 7.50736 17.5 8.75 17.5H13V14.75C13 13.7835 13.7835 13 14.75 13H21.25C22.2165 13 23 13.7835 23 14.75V21.25C23 22.2165 22.2165 23 21.25 23H14.75C13.7835 23 13 22.2165 13 21.25V19H8.75C6.67893 19 5 17.3211 5 15.25V11H2.75C1.7835 11 1 10.2165 1 9.25V2.75ZM14.75 14.5C14.6119 14.5 14.5 14.6119 14.5 14.75V21.25C14.5 21.3881 14.6119 21.5 14.75 21.5H21.25C21.3881 21.5 21.5 21.3881 21.5 21.25V14.75C21.5 14.6119 21.3881 14.5 21.25 14.5H14.75Z" fill="black"/>
</svg>
